<svg width="365" height="385" viewBox="0 0 365 385" fill="none" xmlns="http://www.w3.org/2000/svg">
<path d="M234.2 298.8C236.2 301.5 237.5 307.9 234.1 308.7C230.7 309.5 232.1 299 232.1 299C231.2 298.1 232 295.9 234.2 298.8Z" fill="#EC3240"/>
<path d="M226.8 353.501C228.9 355.001 231.5 359.401 229.2 360.801C226.9 362.201 225.3 354.201 225.3 354.201C224.5 353.701 224.5 351.901 226.8 353.501Z" fill="#EC3240"/>
<path d="M188.3 355.401C188.2 358.001 185.8 362.501 183.4 361.301C181 360.101 187 354.501 187 354.501C186.9 353.501 188.4 352.501 188.3 355.401Z" fill="#EC3240"/>
<path d="M233.1 294.501C236.5 295.001 240.8 298.601 237.3 301.701C233.8 304.801 230.9 296.201 230.9 296.201C229.5 296.201 229.4 294.001 233.1 294.501Z" fill="#EC3240"/>
<path d="M233.1 297.901C236.2 315.101 226.6 334.501 229.4 353.001C230.2 358.101 222 352.701 222 352.701C222 352.701 203 350.901 197.9 352.801C197 357.601 183.5 360.801 182.7 351.601C181.9 342.401 181.1 319.601 181.1 319.601C181.1 319.601 218.8 293.701 233.1 297.901Z" fill="#EC3240"/>
<path opacity="0.2" d="M187.7 315.4C183.7 317.9 181.2 319.7 181.2 319.7C181.2 319.7 181.4 326.3 181.7 333.9C190.5 328.5 198 319.9 198 319.9C198 319.9 193.3 316.9 187.7 315.4Z" fill="black"/>
<path d="M186.8 353.8C186.1 362.9 177.6 376 180.7 379.8C183.8 383.7 234 383.3 240.7 379.8C247.4 376.3 225.4 361.8 225.7 349.7C187.5 339.7 186.8 353.8 186.8 353.8Z" fill="#EC3240"/>
<path d="M187 376.4C182.5 371.9 174.7 376.5 173.6 381.9C182.5 383.8 188.7 381.1 188.7 381.1C188.7 381.1 189 378.3 187 376.4Z" fill="#181818"/>
<path d="M235.8 375.201C240.3 370.701 248.1 375.301 249.2 380.701C240.3 382.601 234.1 379.901 234.1 379.901C234.1 379.901 233.9 377.101 235.8 375.201Z" fill="#181818"/>
<path d="M225 376.201C229.2 370.801 236.6 376.301 237.7 382.801C229.3 385.101 223.5 381.801 223.5 381.801C223.5 381.801 223.2 378.601 225 376.201Z" fill="#181818"/>
<path d="M215.3 375.5C225.2 374.1 226.8 378.5 223 384.1C212.5 384.3 210.9 381.8 210.9 381.8C210.9 381.8 208.3 376.5 215.3 375.5Z" fill="#181818"/>
<path d="M93.5 266.5C90.3 267.3 85.2 271.4 87.3 274.2C89.4 276.9 95 268 95 268C96.2 267.8 97 265.6 93.5 266.5Z" fill="#EC3240"/>
<path d="M68.1 311.101C65.6 311.701 61.6 314.801 63.2 317.001C64.8 319.101 69.3 312.301 69.3 312.301C70.2 312.201 70.8 310.501 68.1 311.101Z" fill="#EC3240"/>
<path d="M100 335.801C98.3001 337.801 97.0001 342.701 99.5001 343.501C102.1 344.301 101.5 336.101 101.5 336.101C102.3 335.401 101.8 333.601 100 335.801Z" fill="#EC3240"/>
<path d="M125.8 312.201C123.9 314.001 121.9 318.701 124.4 319.701C126.9 320.801 127.4 312.601 127.4 312.601C128.1 312.101 127.9 310.301 125.8 312.201Z" fill="#EC3240"/>
<path d="M97.0001 263.801C94.1001 262.001 88.5001 262.101 89.2001 266.701C89.9001 271.301 97.7001 266.501 97.7001 266.501C98.8001 267.401 100.2 265.801 97.0001 263.801Z" fill="#EC3240"/>
<path d="M107.3 255.801C94.0002 267.201 82.0002 296.201 68.0002 308.701C64.1002 312.101 73.9002 313.201 73.9002 313.201C73.9002 313.201 92.0001 321.601 94.7001 326.301C92.3001 330.601 100.7 341.601 107.2 335.101C113.7 328.501 128.8 311.401 128.8 311.401C128.8 311.401 121 261.801 107.3 255.801Z" fill="#EC3240"/>
<path d="M41.6 342.201C37.9 337.001 29.5 340.301 27.5 345.401C36 348.701 42.5 347.101 42.5 347.101C42.5 347.101 43.2 344.401 41.6 342.201Z" fill="#181818"/>
<path d="M101.5 335.1C95.5001 342.1 99.9001 366.9 95.3001 368.7C90.7001 370.5 17.0001 356.9 43.5001 338.4C49.7001 334.1 63.9001 322.3 68.0001 310.9C107.1 315.8 101.5 335.1 101.5 335.1Z" fill="#EC3240"/>
<path d="M92.8 362.601C98.3 365.701 96.1 374.401 91.2 377.001C86.9 368.901 87.8 362.301 87.8 362.301C87.8 362.301 90.4 361.301 92.8 362.601Z" fill="#181818"/>
<path d="M47.5999 348.2C43.6999 340.4 33.7999 345.7 30.8999 351.3C36.9999 357.5 46.0999 353.8 46.0999 353.8C46.0999 353.8 48.8999 350.8 47.5999 348.2Z" fill="#181818"/>
<path d="M55.6 352.701C47.4 347.001 40.5 353.601 41.4 360.301C50.7 365.201 56.8 360.401 56.8 360.401C56.8 360.401 61.4 356.701 55.6 352.701Z" fill="#181818"/>
<path d="M159.3 325.501C210.6 334.301 245.9 301.601 284.6 221.701C306.1 177.201 280 146.701 265.6 141.001C272.1 126.701 265.5 104.601 256.1 95.1006C259.6 98.1006 265.2 95.0006 265.2 95.0006C258.2 91.2006 248.8 56.7006 206.9 48.6006C168.7 41.2006 149.4 62.5006 135.5 70.4006C135.5 70.4006 138.6 76.0006 145 76.1006C132.9 81.9006 121.8 97.8006 120.7 116.201C105.3 116.801 73.7999 136.601 75.7999 186.001C79.3999 274.601 108 316.701 159.3 325.501Z" fill="#EC3240"/>
<path opacity="0.1" d="M145.6 104.7C159 102.9 172.3 106.8 178.6 112.4C165.4 107 145.6 104.7 145.6 104.7Z" fill="black"/>
<path opacity="0.1" d="M207.8 121.9C219.3 119.5 231.1 122 236.9 126.4C225.1 122.6 207.8 121.9 207.8 121.9Z" fill="black"/>
<path opacity="0.1" d="M161.3 112.401C166.4 109.701 172.1 110.201 176.2 113.701C169.2 112.401 161.3 112.401 161.3 112.401Z" fill="black"/>
<path opacity="0.2" d="M75.7998 184.7C85.0998 173.8 92.6998 158.8 94.0998 149.5C88.8998 149.9 84.3998 150.7 80.6998 151.8C77.2998 160.8 75.3998 171.7 75.7998 184.7Z" fill="black"/>
<path opacity="0.2" d="M292.6 183.8C289.7 182.2 286.2 180.7 282.2 179.3C281.3 187.4 283.8 200.8 288.5 212.7C292.2 202 293.3 192.4 292.6 183.8Z" fill="black"/>
<path opacity="0.1" d="M148.4 113.6C146.1 108.9 142 106 137.5 106.1C134.2 106.2 124.9 106.6 131.7 122.3C139.2 139.6 158.1 133.4 148.4 113.6Z" fill="black"/>
<path opacity="0.1" d="M250 120.901C253.9 119.201 257.3 119.901 258.7 123.101C259.8 125.401 262.7 132.101 250 138.401C236 145.301 233.6 128.201 250 120.901Z" fill="black"/>
<path d="M188.6 106.7C187.9 108.4 186.8 109.8 185.5 111C184.2 112.2 182.1 112.3 180.7 111.2C176.1 107.7 169.2 104.6 160.9 103.2C158.3 102.8 156.9 99.9999 158.1 97.6999C158.1 97.6999 158.1 97.6999 158.1 97.5999C165.9 82.2999 194.7 91.9999 188.6 106.7Z" fill="white"/>
<path d="M176.5 96.8003C181.3 91.0003 190.8 98.4003 187.5 104C183.8 110.4 170.6 104 176.5 96.8003Z" fill="#181818"/>
<path d="M233.1 120.901C225.8 119.701 216.8 119.301 207.8 119.901C205 120.101 202.2 118.701 200.8 116.201C199.9 114.601 199.2 112.801 198.9 110.901C195.5 90.1007 235.6 86.4007 241.1 108.501C241.5 110.001 241.7 111.401 241.8 112.701C242.2 117.701 238 121.701 233.1 120.901Z" fill="white"/>
<path d="M213 105.2C210.7 101.9 204.2 105.1 206.1 108.3C208 111.6 216.1 109.6 213 105.2Z" fill="#181818"/>
<path d="M138.1 113.601C150.2 129.901 175.1 132.601 199.7 135.001C224.2 137.401 248.8 135.001 252.1 126.701C250.2 144.401 244.5 170.701 189.6 161.801C128.9 151.801 138.1 113.601 138.1 113.601Z" fill="#181818"/>
<path opacity="0.5" d="M133.1 145.4C147.3 137.2 168.6 136.1 191.4 149.9C204.7 145.5 232.5 142.2 241.6 167.8C182.3 180.7 133.1 145.4 133.1 145.4Z" fill="#EC3240"/>
<path d="M193.7 133.101C192.4 137.901 186.8 141.401 182.2 140.301C174.6 138.401 175.2 131.101 175.2 131.101L193.7 133.101Z" fill="white"/>
<path d="M170.8 130.1C168.9 134.1 162.9 135.9 159.6 134.6C155.1 132.9 154.9 125.4 154.9 125.4L170.8 130.1Z" fill="white"/>
<path d="M154.3 123.6C151.8 126.2 147 126.4 144.6 124.1C140.4 120.2 143.4 115.9 143.4 115.9L154.3 123.6Z" fill="white"/>
<path d="M199.2 134C199.6 138.4 204.1 141.3 208.3 142C212.1 142.7 215.8 134.9 215.8 134.9L199.2 134Z" fill="white"/>
<path d="M221.2 133.9C222.1 137.3 224.8 140.1 226.8 139.5C230.1 138.4 229.4 133.2 229.4 133.2L221.2 133.9Z" fill="white"/>
<path d="M235.6 133.001C236.4 135.201 239.3 136.601 241.4 135.801C244.9 134.501 244.3 131.101 244.3 131.101L235.6 133.001Z" fill="white"/>
<path d="M184.1 164C185.4 159.2 191 155.6 195.5 156.7C203.2 158.6 202.6 165.8 202.6 165.8L184.1 164Z" fill="white"/>
<path d="M210.9 166.401C211 162.001 215.8 157.901 219.4 157.701C224.2 157.501 227.4 164.201 227.4 164.201L210.9 166.401Z" fill="white"/>
<path d="M231.3 161.7C231.2 156.9 233 152.5 235 152.7C238.4 153 239.1 160.1 239.1 160.1L231.3 161.7Z" fill="white"/>
<path d="M174.3 161.001C175.3 155.501 171.9 150.701 168.1 148.701C164.6 146.801 158.3 155.301 158.3 155.301L174.3 161.001Z" fill="white"/>
<path d="M152.6 149.301C153.9 146.001 153.2 142.201 151.2 141.501C147.9 140.401 145.4 145.101 145.4 145.101L152.6 149.301Z" fill="white"/>
<path d="M147.5 145.1C148.9 143.2 148.5 140.1 146.7 138.7C143.7 136.5 141.2 138.9 141.2 138.9L147.5 145.1Z" fill="white"/>
<path d="M130 89.4005C124.2 97.2005 119.2 103.2 116.6 104.4C122 107 125.4 104.9 125.4 104.9C125.4 104.9 136.3 80.8005 130 89.4005Z" fill="#EC3240"/>
<path d="M221.6 53C214.4 47.1 196.9 48.9 185.3 37.5C183.2 43.1 187.8 47.2 187.8 47.2C187.8 47.2 229.8 59.7 221.6 53Z" fill="#EC3240"/>
<path d="M222 53C217.6 47.3 206.5 49.5 199.5 38.5C198 44.2 200.8 48.1 200.8 48.1C200.8 48.1 227 59.5 222 53Z" fill="#EC3240"/>
<path d="M31.7999 153.6C23.1999 157.1 16.4999 173.3 0.899902 178.2C4.8999 182.7 10.5999 180.7 10.5999 180.7C10.5999 180.7 41.5999 149.6 31.7999 153.6Z" fill="#EC3240"/>
<path d="M12.2998 232.7C12.2998 253.6 24.3998 254.1 23.8998 270.5C29.3998 268.2 30.9998 261.5 30.9998 261.5C30.9998 261.5 12.2998 222.1 12.2998 232.7Z" fill="#EC3240"/>
<path d="M342.6 192.3C348.1 199.8 353 212.9 364.9 230.1C359.7 233.2 354.9 226.2 354.9 226.2C354.9 226.2 336.3 183.8 342.6 192.3Z" fill="#EC3240"/>
<path d="M32.5998 152.101C25.7998 154.501 14.8998 172.201 1.7998 173.101C6.0998 177.101 10.8998 176.501 10.8998 176.501C10.8998 176.501 28.0998 168.601 32.5998 152.101Z" fill="#EC3240"/>
<path d="M54.3 202.3C60.2 206.5 58.3 217.6 69.7 224.2C64.1 225.9 60 223.3 60 223.3C60 223.3 47.6 197.5 54.3 202.3Z" fill="#EC3240"/>
<path d="M173.2 54.7003C171.1 60.9003 163.2 67.1003 152.9 67.8003C147.1 65.4003 133.7 43.1003 135.6 30.4003C137.6 17.7003 162.7 0.900283 167.7 0.000283217C172.3 -0.799717 152.4 19.7003 153.4 30.6003C154.4 41.5003 173.2 54.7003 173.2 54.7003Z" fill="#181818"/>
<path d="M232.6 67.8006C232.4 73.2006 236.5 80.3006 244.2 83.9006C249.4 83.8006 266.3 70.8006 268.6 60.5006C270.9 50.2006 258.8 33.1006 253.2 27.7006C250.2 24.8006 259 47.3006 255 55.3006C251 63.4006 232.6 67.8006 232.6 67.8006Z" fill="#181818"/>
<path opacity="0.3" d="M145.4 66.1998C145 66.1998 144.7 66.0998 144.4 65.7998C144.1 65.4998 143.8 65.0998 143.7 64.3998C143.4 62.4998 144.3 60.2998 146.1 58.6998C147.4 57.4998 149 56.6998 150.5 55.7998L151.3 55.3998C155.2 53.2998 158.9 50.7998 162.2 47.7998C163.6 46.5998 165 45.1998 165.2 43.3998C165.2 43.0998 165.2 42.8998 165.1 42.7998C165 42.5998 164.6 42.5998 164.3 42.4998C159.4 42.0998 154.7 44.8998 151.2 47.2998C150.6 47.6998 149.9 48.1998 149.3 48.5998C146 50.9998 142.5 53.3998 138.5 54.4998C136.8 54.9998 135.4 54.9998 134.2 54.5998C132.6 54.0998 131.5 52.6998 131.5 51.1998C131.5 49.5998 132.7 48.1998 135 46.9998C137.7 45.5998 140.5 44.6998 143.3 43.6998C144.6 43.2998 145.8 42.7998 147.1 42.3998C150.5 41.0998 154.8 39.1998 157.8 35.6998C158.4 34.9998 159 33.9998 158.7 33.0998C158.6 32.6998 158.2 32.3998 157.7 32.0998C156.2 31.1998 154.1 30.8998 151.5 31.3998C147.4 32.0998 143.6 33.8998 140.5 36.6998C139.9 37.1998 139.4 37.6998 138.8 38.2998C137.4 39.5998 136 40.9998 134.2 41.8998C131.7 43.1998 128 42.8998 126.5 40.3998C125.3 38.2998 126.1 35.5998 127.6 34.0998C129.2 32.3998 131.4 31.6998 133.4 31.0998C136 30.3998 138.6 29.8998 141.2 29.4998C145.3 28.7998 149.5 27.9998 153.3 26.3998C154.9 25.6998 156 24.9998 156.9 24.0998C157.1 23.8998 157.4 23.5998 157.4 23.2998C157.4 23.0998 157.4 22.9998 157.2 22.7998C156.8 22.3998 156 22.1998 155.3 22.1998C149.5 22.0998 143.7 22.0998 137.9 22.1998C135.7 22.2998 134.4 21.4998 134.3 20.1998C134.2 19.2998 134.7 18.4998 135.9 17.6998C139.2 15.3998 143.3 13.9998 147.3 13.8998C149.9 13.7998 152.4 14.0998 154.9 14.4998C157.8 14.8998 160.8 15.2998 163.7 14.9998C164.4 14.8998 165.4 14.6998 165.9 13.9998C166.6 12.9998 165.7 11.4998 164.5 10.5998C162.2 8.79983 159.4 7.99983 156.4 7.19983C154.6 6.69983 152.7 6.19983 150.9 5.39983C150.2 5.09983 149.4 4.39983 149.3 3.69983C149.2 3.29983 149.3 2.89983 149.6 2.59983C149.9 2.29983 150.3 2.19983 150.6 2.09983C155.5 0.99983 160.8 1.69983 165.1 4.09983C167.3 5.29983 168.5 6.79983 168.6 8.39983C168.6 8.59983 168.4 8.79983 168.2 8.79983C168 8.79983 167.8 8.59983 167.8 8.39983C167.7 6.69983 166.1 5.49983 164.7 4.69983C160.5 2.39983 155.4 1.69983 150.7 2.79983C150.5 2.89983 150.2 2.89983 150.1 3.09983C150 3.19983 150 3.29983 150 3.49983C150.1 3.89983 150.6 4.39983 151.2 4.69983C152.9 5.49983 154.8 5.99983 156.6 6.49983C159.5 7.29983 162.5 8.19983 165 9.99983C166.5 11.0998 167.5 12.9998 166.6 14.4998C166 15.4998 164.7 15.6998 163.9 15.7998C160.9 16.1998 157.8 15.6998 154.9 15.2998C152.4 14.9998 149.9 14.5998 147.4 14.6998C143.5 14.8998 139.6 16.1998 136.4 18.3998C135.5 18.9998 135.1 19.5998 135.1 20.0998C135.2 21.3998 137.5 21.3998 137.9 21.3998C143.7 21.2998 149.5 21.2998 155.3 21.3998C156.2 21.3998 157.3 21.6998 157.8 22.2998C158.1 22.5998 158.2 22.9998 158.1 23.3998C158 23.8998 157.7 24.3998 157.4 24.6998C156.5 25.5998 155.2 26.3998 153.6 27.0998C149.7 28.7998 145.5 29.5998 141.4 30.2998C138.8 30.6998 136.2 31.1998 133.7 31.8998C131.8 32.3998 129.7 33.0998 128.2 34.6998C126.9 35.9998 126.1 38.3998 127.2 40.0998C128.5 42.1998 131.6 42.3998 133.9 41.2998C135.6 40.4998 136.9 39.0998 138.3 37.7998C138.9 37.2998 139.4 36.6998 140 36.1998C143.2 33.3998 147.2 31.4998 151.4 30.6998C154.2 30.1998 156.5 30.4998 158.2 31.4998C158.9 31.8998 159.3 32.2998 159.5 32.8998C159.9 33.8998 159.5 35.0998 158.5 36.2998C155.4 39.8998 151 41.8998 147.5 43.1998C146.2 43.6998 145 44.0998 143.7 44.4998C141 45.3998 138.1 46.3998 135.5 47.6998C133.5 48.6998 132.5 49.8998 132.5 51.1998C132.5 52.4998 133.6 53.4998 134.7 53.7998C135.7 54.0998 137 54.0998 138.6 53.6998C142.5 52.6998 145.9 50.2998 149.1 47.8998C149.7 47.3998 150.4 46.9998 151 46.5998C154.6 44.0998 159.5 41.1998 164.6 41.5998C165.1 41.5998 165.6 41.6998 165.9 42.1998C166.1 42.4998 166.2 42.8998 166.1 43.3998C165.9 45.3998 164.4 46.8998 162.9 48.2998C159.5 51.2998 155.8 53.8998 151.9 55.9998L151.1 56.3998C149.6 57.1998 148.1 57.9998 146.8 59.0998C145.2 60.5998 144.4 62.3998 144.7 64.0998C144.8 64.4998 144.9 64.7998 145.1 64.9998C145.7 65.4998 146.8 64.7998 147.2 64.3998L149.5 62.5998C154.4 58.6998 159.4 54.7998 164.8 51.4998C171.9 47.2998 178.9 44.9998 185.4 44.6998C185.6 44.6998 185.8 44.8998 185.8 45.0998C185.8 45.2998 185.6 45.4998 185.4 45.4998C179 45.7998 172.2 48.0998 165.2 52.1998C159.8 55.3998 154.8 59.3998 150 63.1998L147.7 64.9998C146.7 65.8998 146 66.1998 145.4 66.1998Z" fill="white"/>
<path opacity="0.3" d="M254.5 85.8005C253.7 85.8005 253 85.2005 252.4 84.7005L252.2 84.5005C251.3 83.8005 250.2 83.1005 249.1 82.4005C245.4 80.1005 240.7 77.3005 238 69.4005C236 63.7005 228.6 61.4005 222.1 59.5005C221.4 59.3005 220.7 59.1005 220.1 58.9005C219.9 58.8005 219.8 58.6005 219.8 58.4005C219.9 58.2005 220.1 58.1005 220.3 58.1005C221 58.3005 221.6 58.5005 222.3 58.7005C229 60.7005 236.6 63.0005 238.8 69.1005C241.5 76.7005 246 79.4005 249.6 81.7005C250.8 82.4005 251.9 83.1005 252.8 83.9005L253.1 84.1005C253.7 84.6005 254.3 85.2005 254.9 85.0005C255.1 84.9005 255.3 84.7005 255.4 84.4005C256 83.1005 255.6 81.5005 254.4 79.9005C253.5 78.7005 252.1 77.6005 250.9 76.6005L250.2 76.1005C246.8 73.4005 243.8 70.3005 241.2 67.0005C240 65.5005 238.9 63.9005 239.1 62.2005C239.1 62.0005 239.2 61.5005 239.6 61.2005C240 60.9005 240.5 61.0005 241 61.1005C246 62.1005 250.1 65.7005 253.1 68.7005C253.6 69.2005 254.1 69.8005 254.7 70.3005C257.4 73.0005 260.1 75.9005 263.6 77.7005C265 78.5005 266.2 78.8005 267.3 78.8005C268.4 78.8005 269.7 78.3005 269.9 77.3005C270.2 76.1005 268.9 74.7005 267.7 73.8005C265.5 72.0005 262.9 70.5005 260.5 69.1005C259.4 68.4005 258.2 67.7005 257.1 67.0005C254 65.0005 250.2 62.3005 248 58.6005C247 56.9005 247.3 56.0005 247.8 55.5005C248.1 55.1005 248.6 54.9005 249.4 54.7005C251.3 54.3005 253.4 54.7005 256.1 55.8005C260 57.5005 263.4 60.0005 265.9 63.2005C266.3 63.8005 266.8 64.3005 267.2 64.9005C268.3 66.4005 269.2 67.7005 270.7 68.8005C272.6 70.3005 275.8 71.0005 277.4 69.6005C278.7 68.5005 278.5 66.5005 277.6 65.1005C276.5 63.5005 274.6 62.3005 272.9 61.4005C270.6 60.2005 268.2 59.1005 265.8 58.1005C262 56.5005 258.1 54.7005 254.7 52.4005C253.2 51.4005 252.2 50.4005 251.5 49.5005C251.3 49.2005 251 48.7005 251 48.2005C251 47.9005 251.2 47.6005 251.5 47.4005C252.2 47.0005 253.3 47.0005 254.2 47.3005C259.8 48.7005 265.4 50.2005 271 51.8005C272.3 52.2005 273.8 52.2005 274 51.5005C274.2 51.1005 273.9 50.6005 273.2 49.9005C270.6 47.3005 267.1 45.2005 263.4 44.1005C261 43.4005 258.5 43.0005 256 42.6005C253.1 42.2005 250 41.7005 247.2 40.6005C246.3 40.3005 245.2 39.8005 244.8 38.8005C244.6 38.3005 244.6 37.8005 244.8 37.3005C245.2 36.4005 246.4 35.7005 247.3 35.4005C250.1 34.5005 253.2 34.6005 256.1 34.7005C258 34.8005 259.9 34.8005 261.7 34.6005C262.3 34.5005 262.9 34.3005 263.1 34.0005C263.1 34.0005 263.1 33.9005 263.1 33.8005C263 33.7005 262.8 33.5005 262.6 33.4005C258.3 31.3005 253.2 30.5005 248.7 31.3005C247.2 31.5005 245.4 32.1005 244.9 33.4005C244.8 33.6005 244.6 33.7005 244.4 33.7005C244.2 33.6005 244.1 33.4005 244.1 33.2005C244.5 31.9005 246.1 30.9005 248.5 30.5005C253.2 29.7005 258.5 30.5005 262.9 32.7005C263.2 32.9005 263.6 33.0005 263.8 33.4005C264 33.7005 264 34.1005 263.9 34.4005C263.6 35.0005 262.6 35.4005 261.9 35.5005C260 35.7005 258.1 35.6005 256.2 35.6005C253.1 35.5005 250.3 35.4005 247.6 36.2005C246.6 36.5005 245.8 37.1005 245.6 37.7005C245.5 38.0005 245.5 38.2005 245.6 38.5005C245.9 39.2005 246.8 39.6005 247.5 39.8005C250.3 40.8005 253.2 41.3005 256.1 41.7005C258.6 42.1005 261.1 42.5005 263.6 43.2005C267.4 44.4005 271 46.5005 273.7 49.2005C274.1 49.6005 275.1 50.6005 274.7 51.7005C274.3 52.7005 272.8 53.0005 270.7 52.4005C265.1 50.8005 259.5 49.3005 253.9 47.9005C253 47.7005 252.2 47.7005 251.8 47.9005C251.7 48.0005 251.7 48.0005 251.6 48.1005C251.6 48.3005 251.8 48.6005 251.9 48.8005C252.6 49.7005 253.5 50.6005 254.9 51.6005C258.2 53.9005 262.1 55.6005 265.9 57.3005C268.3 58.3005 270.8 59.4005 273.1 60.6005C274.9 61.6005 276.9 62.8005 278.1 64.5005C279.2 66.2005 279.5 68.6005 277.8 70.0005C275.8 71.6005 272.3 70.9005 270.1 69.2005C268.6 68.0005 267.5 66.5005 266.5 65.1005C266.1 64.5005 265.7 64.0005 265.2 63.4005C262.8 60.4005 259.5 57.9005 255.7 56.3005C253.2 55.2005 251.2 54.9005 249.5 55.3005C249 55.4005 248.6 55.6005 248.4 55.8005C247.9 56.4005 248.3 57.3005 248.7 58.0005C250.8 61.6005 254.5 64.2005 257.6 66.1005C258.7 66.8005 259.8 67.5005 261 68.2005C263.5 69.7005 266 71.2005 268.3 73.0005C270.3 74.6005 271.1 76.0005 270.7 77.3005C270.4 78.5005 269 79.4005 267.3 79.4005C266.1 79.4005 264.8 79.0005 263.2 78.2005C259.6 76.3005 256.8 73.4005 254.1 70.6005C253.6 70.1005 253.1 69.5005 252.6 69.0005C249.7 66.1005 245.8 62.6005 240.9 61.7005C240.7 61.7005 240.3 61.6005 240.1 61.7005C240 61.8005 239.9 61.9005 239.9 62.1005C239.7 63.5005 240.7 65.0005 241.8 66.3005C244.4 69.5005 247.4 72.5005 250.7 75.3005L251.4 75.8005C252.7 76.9005 254.1 77.9005 255.1 79.3005C256.5 81.1005 256.9 83.1005 256.2 84.6005C256 85.1005 255.6 85.4005 255.2 85.6005C254.8 85.7005 254.6 85.8005 254.5 85.8005Z" fill="white"/>
<path d="M163.3 89.3001C187.4 98.6001 189.7 105.2 192.1 102.6C194.5 100 193.3 88.9001 187.7 84.4001C182.1 79.9001 179.7 82.1001 181.2 83.9001C173.1 78.0001 164 77.2001 161.2 78.1001C158.4 79.0001 161.6 81.0001 161.6 81.0001C161.6 81.0001 144.8 82.1001 163.3 89.3001Z" fill="#181818"/>
<path d="M237.6 103.7C204.7 103.2 199.3 108.4 197.4 105.1C195.5 101.8 201.2 91.7998 209.7 89.6998C218.3 87.5998 220.4 90.5998 217.8 91.6998C229.9 89.2998 241.3 91.9998 244.5 93.9998C247.6 95.8998 242.9 96.4998 242.9 96.4998C242.9 96.4998 262.9 104.1 237.6 103.7Z" fill="#181818"/>
<path d="M171.7 54.5004C170.4 51.5004 170.5 44.9004 173.9 44.9004C177.4 44.9004 173.7 54.8004 173.7 54.8004C174.4 55.8004 173.1 57.8004 171.7 54.5004Z" fill="#EC3240"/>
<path d="M122 119.6C119.1 118 115.2 112.7 117.9 110.6C120.6 108.5 123.8 118.6 123.8 118.6C124.9 119.1 125.2 121.4 122 119.6Z" fill="#EC3240"/>
<path d="M172.2 56.5006C169.2 55.2006 164.8 50.3006 167.3 47.9006C169.8 45.6006 173.9 55.3006 173.9 55.3006C175.1 55.7006 175.5 58.0006 172.2 56.5006Z" fill="#EC3240"/>
<path d="M234.4 69.6004C238.9 68.4004 245.9 62.5004 242.9 58.8004C239.9 55.0004 232.3 67.7004 232.3 67.7004C230.6 67.8004 229.5 70.9004 234.4 69.6004Z" fill="#EC3240"/>
<path opacity="0.1" d="M186.4 170C235.9 177.4 252.7 200.7 249.3 219.9C246.6 235.4 240 224.1 240 224.1C240 224.1 242 260.6 220.8 279.1C214.1 284.9 215.3 276.3 215.3 276.3C215.3 276.3 194.5 312.5 169 309C131.8 303.9 130.3 265.3 130.3 265.3C130.3 265.3 123.1 276.2 117.2 260.5C110.7 243.3 110.6 220.5 118.9 203.5C107.2 210.7 104.8 157.8 186.4 170Z" fill="white"/>
<path opacity="0.1" d="M188.3 173.601C150 166.501 131.9 177.501 129.6 190.701C127.7 201.301 135.4 195.701 135.4 195.701C135.4 195.701 124.8 218.701 135.8 235.601C139.3 241.001 140.5 235.101 140.5 235.101C140.5 235.101 146.8 263.301 166.4 267.201C195 272.801 203.1 247.601 203.1 247.601C203.1 247.601 207.8 258.901 215.8 248.601C223.7 238.301 229.5 220.801 229.6 211.401C236.4 218.701 251.4 185.301 188.3 173.601Z" fill="white"/>
<path d="M120.5 160.7C120.3 161.2 120.1 161.2 119.9 161.2H119.3L118.1 161.1H115.7L113.3 161.2C112.5 161.3 111.7 161.4 110.9 161.4C107.7 161.8 104.5 162.4 101.3 163.3C94.8 165.1 88.4 168 82 171.7C75.7 175.4 69.6 180 63.8 185.1C58 190.2 52.6 195.9 47.7 201.9L52.6 187.8L53.3 193.5L54.2 199C54.6 200.8 55 202.5 55.4 204.2C55.9 205.9 56.3 207.6 56.8 209.1C57.8 212.3 59 215.1 60.3 217.4C60.6 218 60.9 218.4 61.2 218.9C61.3 219.2 61.5 219.3 61.6 219.5C61.7 219.7 61.9 219.9 62 220C62.1 220.1 62.3 220.2 62.4 220.4C62.5 220.5 62.6 220.5 62.7 220.5C62.7 220.6 62.7 220.5 62.7 220.4C62.7 220.3 62.7 220.3 62.7 220.3C62.6 220.2 62.6 220 62.5 219.9C62.4 219.8 62.3 219.6 62.2 219.4L62 219.1L61.6 218.6L61.1 218.1C71.9 229 71.9 246.5 61 257.3C50.1 268.1 32.6 268.1 21.8 257.2L21.2 256.6L20.7 256L20.2 255.4C19.9 255 19.6 254.6 19.3 254.3C18.9 253.7 18.5 253.2 18.1 252.6C17.7 252.1 17.5 251.6 17.2 251.1C16.9 250.6 16.6 250.1 16.4 249.7C15.9 248.8 15.4 247.9 15 247L13.8 244.5C13.4 243.7 13.1 242.9 12.8 242.1C12.5 241.3 12.2 240.5 11.9 239.7C11.4 238.2 10.8 236.6 10.5 235.1C8.8 229.1 7.9 223.5 7.3 218.2C6.9 215.5 6.9 212.9 6.7 210.2C6.6 207.6 6.6 205 6.5 202.5C6.6 200 6.6 197.5 6.7 195L7.2 187.6L7.4 184.1C7.7 180 9.4 176.3 12 173.5C18.3 165.3 25.3 157.7 32.9 150.7C40.6 143.7 49 137.3 58.2 131.7C67.4 126.1 77.6 121.5 88.5 118.4C94 116.8 99.7 115.7 105.5 115C107 114.9 108.4 114.7 109.9 114.6C111.4 114.5 112.8 114.4 114.3 114.4C115.8 114.4 117.2 114.4 118.7 114.4L120.9 114.5H122C122.4 114.5 122.7 114.6 123.1 115.1C130.4 125.5 131 138.6 125.8 149.3L120.5 160.7Z" fill="#EC3240"/>
<path d="M263.8 140.2C264.2 139.8 264.5 139.8 264.8 139.9L265.7 140.1L267.5 140.6L271.1 141.6C273.5 142.3 275.9 143.1 278.3 143.9C283.1 145.6 287.8 147.5 292.4 149.7C301.6 154.1 310.6 159.6 318.7 166.2C326.8 172.8 334.2 180.6 340.3 189.2C346.4 197.8 351.4 207.2 355 217L355.3 217.8C356.9 222.2 357 226.9 355.7 231.1C355 234.3 354.1 237.4 353 240.3C351.9 243.2 350.7 245.8 349.3 248.4C348 250.9 346.5 253.3 345 255.5C343.5 257.7 342 259.8 340.4 261.9C337.2 265.9 333.9 269.6 330.4 273C328.7 274.7 326.9 276.4 325 278C324.1 278.8 323.1 279.6 322.1 280.4L320.6 281.6L319.8 282.2C319.4 282.5 319.3 282.6 318.6 283C305.5 290.9 288.4 286.7 280.5 273.6C272.6 260.5 276.8 243.4 289.9 235.5C289.7 235.7 289.9 235.6 290 235.5C290.1 235.4 290.2 235.4 290.4 235.4L291.3 235C291.9 234.7 292.5 234.4 293.1 234.1C294.3 233.5 295.6 232.7 296.8 232C299.2 230.5 301.5 229 303.6 227.4C304.6 226.6 305.6 225.8 306.5 225C307.4 224.2 308.2 223.5 308.9 222.7C309.6 222 310.2 221.3 310.7 220.7L312 219.1L312.7 233.2C310.2 227.1 307.1 221.3 303.2 216.1C299.4 210.9 294.8 206.2 289.7 202.1C284.6 198 278.9 194.5 272.7 191.6C269.6 190.2 266.4 188.9 263.1 187.7C261.5 187.1 259.8 186.6 258.1 186.1L255.6 185.4L254.3 185.1L253.7 184.9C253.5 184.8 253.3 184.7 253.2 184.2L251.8 177.4C248.8 163.4 253.9 149.4 263.8 140.2Z" fill="#EC3240"/>
<path opacity="0.1" d="M118.7 122.901C118.3 124.901 115.1 126.001 111.7 125.301C108.3 124.601 105.9 122.301 106.3 120.301C106.7 118.301 109.9 117.201 113.3 117.901C116.7 118.601 119.2 120.801 118.7 122.901Z" fill="black"/>
<path opacity="0.1" d="M105.1 126.901C105 128.301 103.2 129.301 100.9 129.201C98.6 129.101 96.8 127.901 96.9 126.601C97 125.201 98.8 124.201 101.1 124.301C103.3 124.401 105.1 125.501 105.1 126.901Z" fill="black"/>
<path opacity="0.1" d="M221.1 56.8004C220.4 57.5004 218.5 56.9004 216.9 55.3004C215.2 53.7004 214.5 51.9004 215.2 51.1004C215.9 50.4004 217.8 51.0004 219.4 52.6004C221 54.2004 221.8 56.1004 221.1 56.8004Z" fill="black"/>
<path opacity="0.1" d="M194.3 83.5999C192.8 84.0999 190.9 82.3999 190.1 79.8999C189.3 77.3999 189.9 74.8999 191.4 74.3999C192.9 73.8999 194.8 75.5999 195.6 78.0999C196.4 80.6999 195.8 83.0999 194.3 83.5999Z" fill="black"/>
<path opacity="0.1" d="M186.5 76.1008C185.6 76.6008 184.2 75.7008 183.4 74.2008C182.6 72.7008 182.7 71.0008 183.6 70.6008C184.5 70.1008 185.9 71.0008 186.7 72.5008C187.5 74.0008 187.4 75.6008 186.5 76.1008Z" fill="black"/>
<path opacity="0.1" d="M57.2999 219.401C56.0999 220.101 54.2999 219.001 53.0999 217.001C51.9999 215.001 52.0999 212.901 53.1999 212.201C54.3999 211.501 56.1999 212.601 57.3999 214.601C58.4999 216.601 58.4999 218.801 57.2999 219.401Z" fill="black"/>
<path opacity="0.1" d="M48.4001 212C47.5001 212.1 46.7001 211.1 46.4001 209.7C46.2001 208.3 46.7001 207 47.5001 206.9C48.4001 206.8 49.2001 207.8 49.5001 209.2C49.7001 210.6 49.2001 211.9 48.4001 212Z" fill="black"/>
<path opacity="0.1" d="M34.8998 154.1C34.1998 153.5 34.3998 152.2 35.3998 151.1C36.2998 150 37.5998 149.5 38.2998 150.1C38.9998 150.7 38.7998 152 37.7998 153.1C36.8998 154.2 35.5998 154.7 34.8998 154.1Z" fill="black"/>
<path opacity="0.1" d="M24.8999 250.9C22.6999 252 19.3999 249.801 17.5999 246.101C15.7999 242.401 16.1999 238.4 18.3999 237.4C20.5999 236.4 23.8999 238.501 25.6999 242.301C27.4999 246.001 27.1999 249.9 24.8999 250.9Z" fill="black"/>
<path opacity="0.1" d="M110.1 182.8C108.8 181.3 109.4 178.7 111.4 177C113.4 175.3 116 175.2 117.3 176.8C118.6 178.3 118 180.9 116 182.6C114 184.3 111.3 184.4 110.1 182.8Z" fill="black"/>
<path opacity="0.1" d="M110.9 172.101C110.7 170.901 111.8 169.701 113.3 169.501C114.8 169.301 116.2 170.001 116.4 171.201C116.6 172.401 115.5 173.601 114 173.801C112.5 174.001 111 173.301 110.9 172.101Z" fill="black"/>
<path opacity="0.1" d="M124.2 174.5C123.6 174.2 123.4 173.3 123.8 172.4C124.2 171.6 125.1 171.2 125.7 171.5C126.3 171.8 126.5 172.7 126.1 173.6C125.7 174.4 124.8 174.8 124.2 174.5Z" fill="black"/>
<path opacity="0.1" d="M345 240.101C345.9 241.301 345.5 243.801 344 245.901C342.5 247.901 340.6 248.601 339.7 247.401C338.8 246.201 339.2 243.701 340.7 241.601C342.2 239.701 344.1 239.001 345 240.101Z" fill="black"/>
<path opacity="0.1" d="M344.2 248.201C344.9 248.801 344.8 250.501 344 252.001C343.2 253.501 342.1 254.201 341.4 253.601C340.7 253.001 340.8 251.301 341.6 249.801C342.4 248.301 343.5 247.601 344.2 248.201Z" fill="black"/>
<path opacity="0.1" d="M75 313.701C75.7 315.001 74.9 317.501 73.2 319.201C71.5 321.001 69.5 321.401 68.7 320.101C68 318.801 68.8 316.301 70.5 314.601C72.3 312.801 74.3 312.401 75 313.701Z" fill="black"/>
<path opacity="0.1" d="M73.0997 321.6C73.6997 322.3 73.2998 324 72.3998 325.4C71.3998 326.8 70.0997 327.3 69.5997 326.6C68.9997 325.9 69.3998 324.2 70.2998 322.8C71.1998 321.4 72.4997 320.9 73.0997 321.6Z" fill="black"/>
<path opacity="0.1" d="M317.8 278.7C317.8 280.1 315.8 281.9 313.3 282.6C310.8 283.3 308.7 282.8 308.7 281.4C308.7 280 310.7 278.2 313.2 277.5C315.8 276.7 317.8 277.3 317.8 278.7Z" fill="black"/>
<path opacity="0.1" d="M221.6 345.7C223 346.1 224.1 348.5 224.1 351.1C224.1 353.7 223 355.5 221.6 355.2C220.2 354.8 219.1 352.4 219.1 349.8C219.1 347.1 220.2 345.3 221.6 345.7Z" fill="black"/>
<path opacity="0.1" d="M246.2 187.4C247.8 186.7 250.2 188 251.6 190.2C253 192.4 252.8 194.8 251.2 195.4C249.6 196.1 247.2 194.8 245.8 192.6C244.4 190.4 244.5 188.1 246.2 187.4Z" fill="black"/>
<path opacity="0.1" d="M214.7 356.8C217.1 356.7 220.4 359.5 222 363.1C223.6 366.6 223 369.6 220.5 369.7C218.1 369.8 214.8 367 213.2 363.4C211.6 359.9 212.2 356.9 214.7 356.8Z" fill="black"/>
<path opacity="0.1" d="M352.2 233.101C352.6 233.601 352.4 235.101 351.7 236.501C351 237.901 350.2 238.601 349.8 238.201C349.4 237.701 349.6 236.201 350.3 234.801C351 233.401 351.8 232.601 352.2 233.101Z" fill="black"/>
<path opacity="0.1" d="M294.2 155.6C295.3 154.6 298.2 155.1 300.6 156.7C303 158.3 304.1 160.3 302.9 161.3C301.8 162.3 298.9 161.8 296.5 160.2C294.1 158.6 293.1 156.6 294.2 155.6Z" fill="black"/>
<path d="M83.8999 294.3L36.1999 296L35.3999 274.2L80.9999 215.1L103.8 214.3L105.9 272.9L117.7 272.5L118.5 293.1L106.7 293.5L107.4 311.3L84.5999 312.1L83.8999 294.3ZM83.0999 273.8L81.9999 243.8L57.8999 274.7L83.0999 273.8Z" fill="white"/>
<path d="M84.4999 312.6C84.1999 312.6 83.9999 312.4 83.9999 312.1L83.3999 294.8L36.1999 296.5C35.8999 296.5 35.6999 296.3 35.6999 296L34.8999 274.2C34.8999 274.1 34.8999 274 34.9999 273.9L80.5999 214.8C80.6999 214.7 80.7999 214.6 80.9999 214.6L103.8 213.8C104.1 213.8 104.3 214 104.3 214.3L106.4 272.4L117.7 272C118 272 118.2 272.2 118.2 272.5L119 293.1C119 293.2 119 293.4 118.9 293.5C118.8 293.6 118.7 293.7 118.6 293.7L107.3 294.1L107.9 311.4C107.9 311.5 107.9 311.7 107.8 311.8C107.7 311.9 107.6 312 107.5 312L84.4999 312.6ZM83.8999 293.8C84.1999 293.8 84.3999 294 84.3999 294.3L84.9999 311.6L106.8 310.8L106.2 293.5C106.2 293.4 106.2 293.2 106.3 293.1C106.4 293 106.5 292.9 106.6 292.9L117.9 292.5L117.2 272.9L105.9 273.3C105.6 273.3 105.4 273.1 105.4 272.8L103.3 214.7L81.1999 215.5L35.8999 274.2L36.6999 295.3L83.8999 293.8ZM57.8999 275.1C57.6999 275.1 57.4999 275 57.4999 274.8C57.3999 274.6 57.3999 274.4 57.5999 274.3L81.6999 243.4C81.7999 243.2 82.0999 243.2 82.1999 243.2C82.3999 243.3 82.4999 243.4 82.4999 243.7L83.5999 273.7C83.5999 273.8 83.5999 274 83.4999 274.1C83.3999 274.2 83.2999 274.3 83.1999 274.3L57.8999 275.1ZM81.5999 245.1L58.9999 274.1L82.5999 273.3L81.5999 245.1Z" fill="#EC3240"/>
<path d="M125.6 262.6C124.9 244.5 127.7 231.7 133.9 224.2C140.1 216.7 149.8 212.8 163 212.3C169.3 212.1 174.6 212.7 178.7 214.1C182.8 215.5 186.2 217.5 188.9 219.9C191.6 222.3 193.7 224.9 195.3 227.7C196.9 230.4 198.2 233.7 199.2 237.4C201.2 244.5 202.4 251.8 202.7 259.6C203.3 276.9 200.9 289.7 195.4 297.9C189.9 306.1 180.1 310.5 166 311C158.1 311.3 151.6 310.2 146.6 307.8C141.6 305.4 137.5 301.8 134.2 297C131.8 293.6 129.9 288.8 128.4 282.8C126.7 276.6 125.8 269.9 125.6 262.6ZM151.5 261.7C151.9 273.8 153.3 282.1 155.6 286.5C157.9 290.9 161 293 165.1 292.8C167.8 292.7 170 291.7 171.9 289.7C173.8 287.7 175.1 284.7 175.9 280.6C176.7 276.5 176.9 270.1 176.6 261.5C176.1 248.8 174.8 240.4 172.5 236.1C170.2 231.8 167 229.7 162.7 229.9C158.4 230.1 155.3 232.4 153.6 236.9C151.8 241.4 151.1 249.7 151.5 261.7Z" fill="white"/>
<path d="M163.4 311.5C156.5 311.5 150.7 310.4 146.2 308.2C141.2 305.8 136.9 302.1 133.6 297.2C131.2 293.7 129.2 288.9 127.7 282.8C126.2 276.7 125.3 269.9 125 262.6C124.3 244.4 127.2 231.4 133.4 223.9C139.7 216.3 149.6 212.3 162.8 211.8C169.2 211.6 174.5 212.2 178.7 213.7C182.9 215.2 186.4 217.2 189.1 219.6C191.8 222.1 194 224.7 195.6 227.5C197.2 230.3 198.5 233.6 199.6 237.3C201.6 244.4 202.8 251.9 203.1 259.6C203.7 276.9 201.3 289.9 195.7 298.2C190.1 306.5 180.1 311 165.9 311.5C165 311.4 164.2 311.5 163.4 311.5ZM126.1 262.5C126.4 269.8 127.3 276.5 128.7 282.5C130.2 288.5 132.1 293.2 134.5 296.6C137.7 301.3 141.9 304.9 146.7 307.3C151.6 309.6 158 310.7 165.8 310.4C179.7 309.9 189.5 305.6 194.9 297.5C200.3 289.4 202.7 276.6 202.1 259.5C201.8 251.9 200.7 244.4 198.7 237.5C197.7 233.9 196.4 230.6 194.8 227.9C193.3 225.2 191.1 222.6 188.5 220.2C185.9 217.8 182.5 215.9 178.5 214.5C174.4 213.1 169.2 212.5 163 212.7C150 213.2 140.4 217.1 134.3 224.4C128.2 231.8 125.4 244.6 126.1 262.5ZM164.7 293.3C160.7 293.3 157.5 291.1 155.2 286.7C152.9 282.3 151.5 273.9 151 261.7C150.6 249.7 151.2 241.3 153 236.7C154.8 232 158.1 229.5 162.6 229.4C167 229.3 170.5 231.4 172.8 235.9C175.1 240.2 176.5 248.9 177 261.5C177.3 270.1 177.1 276.6 176.3 280.7C175.5 284.9 174.1 288 172.2 290.1C170.2 292.1 167.8 293.2 165.1 293.3C165 293.3 164.9 293.3 164.7 293.3ZM152 261.7C152.4 273.7 153.8 282 156 286.3C158.2 290.5 161.1 292.5 165 292.4C167.5 292.3 169.7 291.3 171.5 289.5C173.3 287.6 174.6 284.7 175.3 280.7C176.1 276.6 176.3 270.3 176 261.7C175.5 249.2 174.2 240.7 171.9 236.5C169.7 232.4 166.6 230.4 162.6 230.6C158.5 230.7 155.6 232.9 153.9 237.3C152.3 241.5 151.6 249.8 152 261.7Z" fill="#EC3240"/>
<path d="M142.7 216.7L149.2 221.2C149.3 221.2 149.3 221.3 149.3 221.4L148.9 225.7V225.6L151.4 227.6L148.8 225.7V225.6L148.9 221.3L149 221.5L142.2 217.4L142.7 216.7Z" fill="#EC3240"/>
<path d="M147.2 220.201L145.3 222.901C145.3 222.901 145.3 222.901 145.2 222.901L142.5 224.301L145 222.501L144.9 222.601L146.3 219.601L147.2 220.201Z" fill="#EC3240"/>
<path d="M172 289.8L175.8 294.4C175.8 294.4 175.8 294.5 175.9 294.5L177.1 299.9L175.1 294.8L175.2 295L170.7 291.2L172 289.8Z" fill="#EC3240"/>
<path d="M173.8 292.4L181.3 290.9L174 293.3L173.8 292.4Z" fill="#EC3240"/>
<path d="M259.5 288.101L211.8 289.801L211 268.001L256.6 208.901L279.4 208.101L281.5 266.701L293.3 266.301L294.1 286.901L282.3 287.301L283 305.101L260.2 305.901L259.5 288.101ZM258.7 267.601L257.6 237.601L233.5 268.501L258.7 267.601Z" fill="white"/>
<path d="M260.1 306.5C259.8 306.5 259.6 306.3 259.6 306L259 288.7L211.8 290.4C211.5 290.4 211.3 290.2 211.3 289.9L210.5 268.1C210.5 268 210.5 267.9 210.6 267.8L256.2 208.7C256.3 208.6 256.4 208.5 256.6 208.5L279.4 207.7C279.7 207.7 279.9 207.9 279.9 208.2L282 266.3L293.3 265.9C293.6 265.9 293.8 266.1 293.8 266.4L294.6 287C294.6 287.1 294.6 287.3 294.5 287.4C294.4 287.5 294.3 287.6 294.2 287.6L282.9 288L283.5 305.3C283.5 305.4 283.5 305.6 283.4 305.7C283.3 305.8 283.2 305.9 283.1 305.9L260.1 306.5ZM259.5 287.6C259.8 287.6 260 287.8 260 288.1L260.6 305.4L282.4 304.6L281.8 287.3C281.8 287.2 281.8 287 281.9 286.9C282 286.8 282.1 286.7 282.2 286.7L293.5 286.3L292.8 266.7L281.5 267.1C281.2 267.1 281 266.9 281 266.6L278.9 208.5L256.8 209.3L211.5 268L212.3 289.1L259.5 287.6ZM233.5 269C233.3 269 233.1 268.9 233.1 268.7C233 268.5 233 268.3 233.2 268.2L257.3 237.3C257.4 237.1 257.6 237.1 257.8 237.1C258 237.2 258.1 237.3 258.1 237.6L259.2 267.6C259.2 267.7 259.2 267.9 259.1 268C259 268.1 258.9 268.2 258.8 268.2L233.5 269ZM257.2 239L234.6 268L258.2 267.2L257.2 239Z" fill="#EC3240"/>
<path d="M257.5 238.901L263.5 236.001L263.3 236.401L262.4 230.701C262.4 230.601 262.4 230.501 262.5 230.501L270 225.301V225.401L269.6 218.101L270.2 225.401V225.501L262.9 230.901L263 230.701L264 236.401C264 236.501 264 236.701 263.8 236.701L257.9 239.901L257.5 238.901Z" fill="#EC3240"/>
<path d="M35.7998 295.7L43.4998 286.7C43.5998 286.6 43.6998 286.6 43.7998 286.6L49.2998 287.5H49.0998L55.1998 284.1V284.2L57.8998 274.7L55.3998 284.2C55.3998 284.2 55.3998 284.2 55.3998 284.3L49.3998 287.9H49.2998L43.6998 287.2L43.9998 287.1L36.5998 296.3L35.7998 295.7Z" fill="#EC3240"/>
<path d="M58.3997 274.801L55.5997 284.201V284.001L58.5997 288.601H58.4997L65.9997 288.701L58.4997 288.801H58.3997L55.1997 284.401C55.1997 284.301 55.0997 284.301 55.1997 284.201L57.4997 274.601L58.3997 274.801Z" fill="#EC3240"/>
<path d="M264.4 229.301L262.5 226.501L259.8 225.601L262.6 226.301L265.1 228.601L264.4 229.301Z" fill="#EC3240"/>
<path d="M58.1998 225.7C60.0998 221.1 74.0998 225.4 77.1998 231C72.3998 231.5 65.6998 235.6 60.3998 234.3C57.2998 233.5 56.7998 228.9 58.1998 225.7Z" fill="#181818"/>
<path d="M55 232.8C58.6 228.5 72.2 237.6 73.7 244.6C68.4 243.6 59.8 245.9 54.5 242.7C51.5 241 52.5 235.8 55 232.8Z" fill="#181818"/>
<path d="M50.3002 243.501C55.2002 240.901 64.4002 254.501 63.1002 261.601C58.6002 258.601 49.8002 257.501 46.1002 252.501C44.0002 249.701 46.9002 245.301 50.3002 243.501Z" fill="#181818"/>
<path d="M40.8 252.701C45.2 253.001 45.7 266.001 41.8 270.201C40 266.301 34.6 261.901 34.2 257.001C34 254.201 37.8 252.401 40.8 252.701Z" fill="#181818"/>
<path d="M293.9 241.5C293.9 236.5 279.4 235 274.3 239C278.5 241.3 283.1 247.8 288.5 248.6C291.7 249.1 293.9 245 293.9 241.5Z" fill="#181818"/>
<path d="M292.9 253C290.8 247.9 275 252.499 271.5 258.799C276.9 259.399 284.4 264.1 290.4 262.6C293.8 261.8 294.4 256.6 292.9 253Z" fill="#181818"/>
<path d="M294.1 261C290.6 256.7 276.8 265.6 275.3 272.6C280.6 271.6 289.2 274 294.5 270.9C297.5 269.2 296.6 264 294.1 261Z" fill="#181818"/>
<path d="M300.2 277.3C297.7 273.7 287.4 278.7 284.7 284.1C288.9 283.6 295.5 287.4 299.9 285.2C302.4 283.9 302 279.8 300.2 277.3Z" fill="#181818"/>
</svg>
