<svg xmlns="http://www.w3.org/2000/svg" width="101.429" height="70.427" viewBox="0 0 101.429 70.427">
  <g id="bulldozer" transform="translate(-2.748 -12.453)">
    <path id="Path_116" data-name="Path 116" d="M17.317,53.9a4.69,4.69,0,1,0-4.69-4.69A4.689,4.689,0,0,0,17.317,53.9Zm37.751,0a4.69,4.69,0,1,0-4.69-4.69A4.689,4.689,0,0,0,55.068,53.9Z" transform="translate(5.9 19.15)" fill="#ec3240"/>
    <path id="Path_117" data-name="Path 117" d="M3.946,69.554h3.61q-.048-.6-.048-1.2a15.7,15.7,0,1,1,31.4,0q0,.6-.048,1.2H45.3q-.048-.6-.048-1.2a15.709,15.709,0,0,1,30.954-3.8h.886L85.514,72.8a1.187,1.187,0,0,0,.83.351h16.627a1.2,1.2,0,0,0,0-2.4H98.435L87.271,47.769a1.184,1.184,0,0,0-1.885-.351l-7.355,6.654-.775-.773V37.115a1.206,1.206,0,0,0-1.2-1.2H71.97V32.2a1.2,1.2,0,0,0-1.2-1.2H59.192a1.2,1.2,0,0,0-1.2,1.2v3.721H52.353L47.245,23.827h2.619a1.2,1.2,0,0,0,0-2.4H29.085a1.2,1.2,0,0,0-1.2,1.2V40.182H19.582V34.464h2.907a1.2,1.2,0,0,0,1.2-1.2V21.782a1.2,1.2,0,0,0-1.2-1.2H19.582v-3.29a1.2,1.2,0,0,0-.351-.846l-3.642-3.642a1.191,1.191,0,0,0-1.693,0,1.2,1.2,0,0,0,0,1.693l3.29,3.29v2.8H13.609a1.2,1.2,0,0,0-1.2,1.2V33.266a1.2,1.2,0,0,0,1.2,1.2h3.578v5.718H14.775a1.209,1.209,0,0,0-.879.383l-6.66,7.219a1.188,1.188,0,0,0-.32.815v6.053L3.1,58.47a1.2,1.2,0,0,0-.351.846v9.04A1.2,1.2,0,0,0,3.946,69.554ZM57.994,38.313v3.721a1.2,1.2,0,0,0,1.2,1.2h11.58a1.2,1.2,0,0,0,1.2-1.2V38.313h2.891V50.906l-5.223-5.214a1.318,1.318,0,0,0-.847-.351H56.334l-2.969-7.028h4.63ZM37.566,23.827h7.075l5.81,13.754,0,.009,3.274,7.751H37.566Z" fill="#ec3240"/>
    <path id="Path_118" data-name="Path 118" d="M102.976,64.561H66.461a13.32,13.32,0,1,0-10.988,0H28.717a13.319,13.319,0,1,0-10.986,0H3.95a1.2,1.2,0,1,0,0,2.4h99.026a1.2,1.2,0,1,0,0-2.4Zm-42.01-19.21a7.086,7.086,0,1,1-7.086,7.086A7.087,7.087,0,0,1,60.966,45.352Zm-37.751,0a7.086,7.086,0,1,1-7.086,7.086A7.087,7.087,0,0,1,23.215,45.352Z" transform="translate(0.003 15.922)" fill="#ec3240"/>
  </g>
</svg>
