<svg xmlns="http://www.w3.org/2000/svg" width="17" height="17" viewBox="0 0 17 17">
  <path id="Shape_1" data-name="Shape 1" d="M565.658,5337.193a9.717,9.717,0,0,1-3.049-.485,1.348,1.348,0,0,0-1.327.281l-1.93,1.458a10.78,10.78,0,0,1-4.8-4.8l1.418-1.884a1.355,1.355,0,0,0,.332-1.37,9.714,9.714,0,0,1-.489-3.054,1.344,1.344,0,0,0-1.342-1.343h-3.132a1.344,1.344,0,0,0-1.342,1.343A15.677,15.677,0,0,0,565.658,5343a1.344,1.344,0,0,0,1.342-1.342v-3.123A1.343,1.343,0,0,0,565.658,5337.193Z" transform="translate(-550 -5326)" fill="#fff"/>
</svg>
