<svg xmlns="http://www.w3.org/2000/svg" width="66.51" height="66.538" viewBox="0 0 66.51 66.538">
  <path id="coal-mine" d="M66.471,16.9H2.039A1.041,1.041,0,0,0,1,17.94v5.612a1.041,1.041,0,0,0,1.039,1.039H66.471a.982.982,0,0,0,1.039-1.039V17.94A1.041,1.041,0,0,0,66.471,16.9Zm0,48.532H53.793a5.079,5.079,0,0,0,1.143-3.222,5.328,5.328,0,0,0-4.261-5.2V53.9H55.04A4.542,4.542,0,0,0,59.4,50.26l4.573-23.694H4.533L9.106,50.26A4.456,4.456,0,0,0,13.471,53.9h4.469v3.118a5.347,5.347,0,0,0-4.261,5.2,5.079,5.079,0,0,0,1.143,3.222H2.039A1.041,1.041,0,0,0,1,66.472a1.118,1.118,0,0,0,1.039,1.039H66.471a1.039,1.039,0,0,0,0-2.078Zm-29.1-18.81,2.078-16.835A1.044,1.044,0,0,1,41.53,30L39.451,46.831a1.025,1.025,0,0,1-1.039.935,1.105,1.105,0,0,1-.935-1.039ZM27.916,28.748a1.032,1.032,0,0,1,1.143.935l2.078,16.835c.1.52-.416,1.039-.935,1.143a1.218,1.218,0,0,1-1.143-.935L26.981,29.892A1.032,1.032,0,0,1,27.916,28.748ZM19.083,46.935,15.965,30.1a1.14,1.14,0,0,1,.831-1.247,1.078,1.078,0,0,1,1.247.831l3.118,16.835a1.128,1.128,0,0,1-.935,1.247h0A1.254,1.254,0,0,1,19.083,46.935ZM48.6,57.119a5.347,5.347,0,0,0-4.261,5.2,5.079,5.079,0,0,0,1.143,3.222H23.136a5.758,5.758,0,0,0,1.143-3.222,5.436,5.436,0,0,0-4.261-5.2V54H48.6Zm-.416-9.353a1.078,1.078,0,0,1-.831-1.247l3.118-16.835a1.06,1.06,0,1,1,2.078.416L49.428,46.935A1.14,1.14,0,0,1,48.181,47.766ZM58.573,13.991l1.663-3.326a.944.944,0,0,0,0-1.039,1.06,1.06,0,0,0-.831-.52h0l-11.431.208.416-1.767a.808.808,0,0,0-.208-.831,1.2,1.2,0,0,0-.727-.52l-7.586-.52.416-1.455a1.173,1.173,0,0,0-.1-.831,1.528,1.528,0,0,0-.624-.52L31.241,1a1.157,1.157,0,0,0-1.039.312L25.526,6.925,20.018,5.781a1.045,1.045,0,0,0-1.143.52L16.381,10.77,9.729,12.017a1.325,1.325,0,0,0-.727.52L7.963,14.615H59.3ZM30.722,10.25l-.935,1.039a1.029,1.029,0,0,1-1.455-1.455L29.267,8.8a1,1,0,0,1,1.455,0A1.106,1.106,0,0,1,30.722,10.25Zm9.249,1.143a1,1,0,0,1-1.455,0l-.935-1.039A1.029,1.029,0,0,1,39.036,8.9l.935,1.039A1,1,0,0,1,39.971,11.393Z" transform="translate(-1 -0.973)" fill="#ec3240"/>
</svg>
