<svg xmlns="http://www.w3.org/2000/svg" width="119.846" height="56.064" viewBox="0 0 119.846 56.064">
  <g id="combine-harvester" transform="translate(-11.238 -39.318)">
    <path id="Path_119" data-name="Path 119" d="M97.908,39.318h-16.1a1.136,1.136,0,0,0-1.123,1.308l1.932,12.611a1.136,1.136,0,0,0,1.123.964H94.46a1.136,1.136,0,0,0,1.1-.836L99,40.754a1.136,1.136,0,0,0-1.1-1.435ZM93.593,51.929H84.715L83.132,41.59H96.42Zm-19.7,26.42a4.539,4.539,0,1,0,3.213,1.327,4.539,4.539,0,0,0-3.213-1.327Z" transform="translate(7.889)" fill="#ec3240"/>
    <path id="Path_120" data-name="Path 120" d="M79.664,66.682A12.493,12.493,0,1,0,92.157,79.175,12.493,12.493,0,0,0,79.664,66.682Zm4.818,17.312a6.814,6.814,0,1,1,0-9.637A6.814,6.814,0,0,1,84.482,83.993ZM34.8,75.768a7.95,7.95,0,1,0,7.95,7.95A7.95,7.95,0,0,0,34.8,75.768Zm2.41,10.361a3.409,3.409,0,1,1,0-4.821,3.409,3.409,0,0,1,0,4.821Zm68.921-13.038h-4.543a1.136,1.136,0,0,0-1.134.866l-3.3,13.5a3.407,3.407,0,0,0,3.31,4.216h23.772a.568.568,0,0,0,.4-.971L107.505,73.6a2.271,2.271,0,0,0-1.371-.507Zm10.032,5.917a2.376,2.376,0,1,1,3.353,3.346l6.156,6.141.161-.067,3.008-7.262a1.59,1.59,0,0,0,0-1.217L126.088,73.3a1.59,1.59,0,0,0-.86-.861l-6.653-2.756a1.59,1.59,0,0,0-1.217,0L110.1,72.687l-.077.187Zm8.668,5.443L122.6,82.213h3.164Zm1.324-5.417H122.94l2.276-2.276Zm-6.318-6.026,2.3.954-2.3,2.3Zm-3.465-.265V76l-2.3-2.3ZM94.453,75.029l-.324,1.181A14.748,14.748,0,0,1,92.61,86.262l2.54.088a6.9,6.9,0,0,1,.148-.841l2.526-10.343Z" transform="translate(2.119 3.714)" fill="#ec3240"/>
    <path id="Path_121" data-name="Path 121" d="M97.471,56.063H89.284a2.271,2.271,0,0,1-2.245-1.928L85.378,43.295a1.136,1.136,0,0,0-1.123-.964H51.6a1.136,1.136,0,0,0-1.089.812l-2.924,9.842A1.136,1.136,0,0,1,46.5,53.8H27.2a1.136,1.136,0,0,0-1.1.86L21.4,72.769a2.271,2.271,0,0,0,1.9,2.8l42.414,5.466a14.752,14.752,0,0,1,27.828-5.264L98.567,57.5a1.136,1.136,0,0,0-1.1-1.435ZM45.751,86.591,66.692,87.9a14.652,14.652,0,0,1-1-4.576L43.365,80.447a10.168,10.168,0,0,1,2.386,6.145Zm-16.087-7.91-4.334-.559v5.063a2.254,2.254,0,0,0,.355,1.209A10.24,10.24,0,0,1,29.664,78.681Z" transform="translate(1.37 0.409)" fill="#ec3240"/>
    <path id="Path_122" data-name="Path 122" d="M47.047,51.168l2.025-6.814H16.917a5.7,5.7,0,0,0-5.679,5.679v3.6a1.136,1.136,0,0,0,1.136,1.136h4.543a1.136,1.136,0,0,0,1.136-1.136V52.3a1.136,1.136,0,0,1,1.136-1.136Z" transform="translate(0 0.683)" fill="#ec3240"/>
  </g>
</svg>
