<svg id="dump-truck" xmlns="http://www.w3.org/2000/svg" width="100" height="71.874" viewBox="0 0 100 71.874">
  <path id="Path_114" data-name="Path 114" d="M82.62,90.215a7.729,7.729,0,1,1-7.813,7.728A7.729,7.729,0,0,1,82.62,90.215Zm-58.594,0a7.729,7.729,0,1,1-7.812,7.728A7.729,7.729,0,0,1,24.026,90.215Z" transform="translate(-2.933 -33.798)" fill="#ec3240"/>
  <path id="Path_115" data-name="Path 115" d="M1.563,70.938h3.68l-2.1-12.18,41.828-12.3a1.563,1.563,0,1,0-.875-3L2.609,55.657,1.82,51.1,44.188,38.641a1.563,1.563,0,1,0-.875-3L1.289,48,.023,40.672a1.539,1.539,0,0,1,1.1-1.742L40.18,27.563l1.3-3.867a1.571,1.571,0,0,1,1.055-1l16.406-4.633a1.562,1.562,0,0,1,1.633.5,1.523,1.523,0,0,1,.2,1.672L56.25,29.188V54.321a1.559,1.559,0,0,1-1.3,1.531l-4.687.773a1.532,1.532,0,0,1-.836-.094l-3.4-1.344-6.266,1.859,8.023,13.891H59.375V42.344a4.665,4.665,0,0,1,4.688-4.633H76.875a4.68,4.68,0,0,1,4.281,2.758l5.766,12.859A19.986,19.986,0,0,1,98.7,57.039a3.085,3.085,0,0,1,1.3,2.508V80.211a3.108,3.108,0,0,1-3.125,3.094H92.188a1.554,1.554,0,0,1-1.562-1.547c0-5.852-4.8-10.43-10.937-10.43a11.222,11.222,0,0,0-10.937,11.2,1.559,1.559,0,0,1-1.562,1.547H32.813a1.559,1.559,0,0,1-1.562-1.547A10.635,10.635,0,0,0,26.7,73.774a10.26,10.26,0,0,0-11.2-.016.137.137,0,0,1-.039.031,10.007,10.007,0,0,0-4.523,8.359A1.559,1.559,0,0,1,9.375,83.7H1.562A1.559,1.559,0,0,1,0,82.149V72.485a1.559,1.559,0,0,1,1.563-1.547Zm93.75-3.861H96.88V63.985H95.313a1.546,1.546,0,1,0,0,3.091ZM65.625,55.485a1.559,1.559,0,0,0,1.563,1.547H78.906a1.551,1.551,0,0,0,1.461-2.1L76.461,44.883A1.56,1.56,0,0,0,75,43.891H67.188a1.559,1.559,0,0,0-1.562,1.547ZM36.684,57.958l-2.263.672,7.111,12.311h2.651Zm-2.4,23.03h25.09V74.032H31.449a14.176,14.176,0,0,1,2.836,6.956ZM14.16,70.941a13.376,13.376,0,0,1,13.85,0h9.922l-6.585-11.4L16.07,64.076l-2.313,6.865ZM3.125,80.6H7.9a13.024,13.024,0,0,1,2.742-6.569H3.125Z" transform="translate(0 -18.001)" fill="#ec3240"/>
</svg>
