<svg xmlns="http://www.w3.org/2000/svg" width="25" height="16.001" viewBox="0 0 25 16.001">
  <path id="envelope_footer" data-name="envelope footer" d="M467.413,5220h20.174a2.407,2.407,0,0,1,2.413,2.421v11.159a2.451,2.451,0,0,1-2.413,2.421H467.413A2.451,2.451,0,0,1,465,5233.58v-11.159A2.407,2.407,0,0,1,467.413,5220Zm20.375,14.588-6.836-5.377c-3.15,2.487-3.753,2.487-6.9,0l-6.836,5.377a.244.244,0,0,0,.2.067h20.174A.245.245,0,0,0,487.788,5234.588Zm-5.764-6.185,6.635,5.176h0v-10.285C486.448,5224.975,484.236,5226.655,482.024,5228.4Zm-15.684,5.176,6.635-5.176c-2.145-1.748-4.424-3.429-6.635-5.109v10.285Zm.2-11.832c2.681,2.017,5.363,4.034,7.909,6.118,3.217,2.554,2.949,2.554,6.1,0,2.614-2.084,5.295-4.1,7.909-6.118a1,1,0,0,0-.872-.4H467.413A1.081,1.081,0,0,0,466.541,5221.748Z" transform="translate(-465 -5220)" fill="#1c1c1d"/>
</svg>
