<svg xmlns="http://www.w3.org/2000/svg" width="86.258" height="71.874" viewBox="0 0 86.258 71.874">
  <path id="forklift" d="M75.015,38.074,68.19,17.6c-.007-.018-.025-.025-.032-.043a1.923,1.923,0,0,0-1.675-1.186H46.721a1.8,1.8,0,0,0-1.743,1.362l-1.851,7.4V21.762a5.381,5.381,0,0,0-3.594-5.06V14.574a5.4,5.4,0,0,0-5.391-5.391,1.8,1.8,0,1,0,0,3.594,1.8,1.8,0,0,1,1.8,1.8V16.7a5.381,5.381,0,0,0-3.594,5.06V46.174l-3.594,3.594V3.8a1.8,1.8,0,0,0-3.594,0V59.5H1.8a1.8,1.8,0,0,0-.5,3.525L26.46,70.212a1.8,1.8,0,0,0,2.293-1.729v-1.8h4.255a10.718,10.718,0,0,0,20.24,0h8.514a10.718,10.718,0,0,0,20.24,0h2.458a1.8,1.8,0,0,0,1.8-1.8V50.515A12.556,12.556,0,0,0,75.015,38.074Zm-6.731-8.83,2.9,8.693h-2.9ZM50.168,64.527v.011a7.172,7.172,0,0,1-13.983.32,1.781,1.781,0,0,0-.119-.517,7.119,7.119,0,0,1-.126-1.247,7.186,7.186,0,1,1,14.228,1.434Zm-6.533-26.59,4.492-17.969H64.69V37.937Zm35.283,26.59v.011a7.172,7.172,0,0,1-13.983.32,1.78,1.78,0,0,0-.119-.517,7.12,7.12,0,0,1-.126-1.247,7.186,7.186,0,1,1,14.228,1.434Z" transform="translate(0.003 -2)" fill="#ec3240"/>
</svg>
