<svg xmlns="http://www.w3.org/2000/svg" width="20" height="13" viewBox="0 0 20 13">
  <path id="Shape_3" data-name="Shape 3" d="M1123.93,38h16.139a1.94,1.94,0,0,1,1.93,1.966v9.068A1.976,1.976,0,0,1,1140.07,51H1123.93a1.976,1.976,0,0,1-1.93-1.966V39.966A1.94,1.94,0,0,1,1123.93,38Zm16.3,11.852-5.469-4.369c-2.52,2.021-3,2.021-5.523,0l-5.469,4.369a.193.193,0,0,0,.161.055h16.139A.194.194,0,0,0,1140.23,49.853Zm-4.611-5.025,5.308,4.206h0V40.676C1139.158,42.042,1137.389,43.408,1135.619,44.828Zm-12.547,4.206,5.308-4.206c-1.716-1.42-3.539-2.786-5.308-4.151v8.357Zm.161-9.614c2.145,1.639,4.29,3.278,6.327,4.971,2.574,2.076,2.359,2.076,4.879,0,2.092-1.693,4.236-3.332,6.327-4.971a.79.79,0,0,0-.7-.327H1123.93A.858.858,0,0,0,1123.233,39.42Z" transform="translate(-1122 -38)" fill="#ec3240"/>
</svg>
