<svg xmlns="http://www.w3.org/2000/svg" width="19.996" height="20" viewBox="0 0 19.996 20">
  <path id="Shape_2" data-name="Shape 2" d="M809.626,34a5.274,5.274,0,0,0-5.359,4.747l-3.117-.923a.527.527,0,0,0-.2-.015.491.491,0,0,0-.1.015l-5.5,1.622a.479.479,0,0,0-.352.461v5.045a.5.5,0,0,0,1,.014V40.258l4.5-1.325V51.545L796,52.87V46.858a.5.5,0,0,0-1-.014v6.68a.489.489,0,0,0,.5.476.516.516,0,0,0,.147-.021L801,52.4l5.351,1.577a.525.525,0,0,0,.3,0l5.5-1.622a.479.479,0,0,0,.352-.454V44c.218-.249.436-.5.64-.759A7.1,7.1,0,0,0,815,39.119V39.1a5.249,5.249,0,0,0-5.374-5.1Zm0,.953A4.259,4.259,0,0,1,814,39.1V39.1a6.376,6.376,0,0,1-1.656,3.557c-.837,1.05-1.839,2.061-2.718,3.006-.879-.947-1.882-1.948-2.718-3a6.4,6.4,0,0,1-1.656-3.565V39.1a4.258,4.258,0,0,1,4.374-4.145Zm0,1.666a2.5,2.5,0,1,0,2.625,2.5A2.572,2.572,0,0,0,809.626,36.619Zm0,.953A1.549,1.549,0,1,1,808,39.119,1.58,1.58,0,0,1,809.626,37.572ZM801.5,38.933l2.812.826A7.751,7.751,0,0,0,806,43.093s0,.006,0,.007v9.77l-4.5-1.325V38.933Zm5.5,5.35c.779.867,1.588,1.676,2.241,2.4a.517.517,0,0,0,.705.05.447.447,0,0,0,.053-.05c.446-.5.965-1.028,1.5-1.592v6.451L807,52.87V44.283Z" transform="translate(-795.003 -34)" fill="#ec3240"/>
</svg>
