<svg xmlns="http://www.w3.org/2000/svg" width="23.996" height="25" viewBox="0 0 23.996 25">
  <path id="map_footer" data-name="map footer" d="M482.551,5261a6.428,6.428,0,0,0-6.43,5.934l-3.74-1.153a.6.6,0,0,0-.234-.019.547.547,0,0,0-.122.019l-6.6,2.028a.6.6,0,0,0-.422.577v6.306a.6.6,0,0,0,1.2.017.151.151,0,0,0,0-.017v-5.869l5.4-1.656v15.766l-5.4,1.656v-7.515a.6.6,0,0,0-1.2-.017v8.351a.6.6,0,0,0,.6.594.621.621,0,0,0,.177-.026L472.2,5284l6.42,1.972a.624.624,0,0,0,.356,0l6.6-2.028a.6.6,0,0,0,.422-.567V5273.5c.261-.31.522-.627.768-.949A9.06,9.06,0,0,0,489,5267.4v-.019a6.421,6.421,0,0,0-6.449-6.381Zm0,1.19a5.209,5.209,0,0,1,5.249,5.181v.01a8.122,8.122,0,0,1-1.987,4.445c-1,1.312-2.208,2.576-3.262,3.758-1.055-1.183-2.258-2.435-3.262-3.748a8.167,8.167,0,0,1-1.987-4.455v-.01a5.209,5.209,0,0,1,5.249-5.181Zm0,2.083a3.125,3.125,0,1,0,3.149,3.125A3.147,3.147,0,0,0,482.551,5264.274Zm0,1.19a1.935,1.935,0,1,1-1.95,1.935A1.933,1.933,0,0,1,482.551,5265.464Zm-9.748,1.7,3.374,1.032a9.848,9.848,0,0,0,2.024,4.167s0,.007,0,.009v12.212l-5.4-1.656v-15.766Zm6.6,6.688c.935,1.083,1.905,2.094,2.69,3a.6.6,0,0,0,.846.063.524.524,0,0,0,.063-.062c.536-.621,1.158-1.284,1.8-1.99v8.064l-5.4,1.656v-10.733Z" transform="translate(-465.004 -5261)" fill="#1c1c1d"/>
</svg>
