<svg xmlns="http://www.w3.org/2000/svg" width="24" height="24.004" viewBox="0 0 24 24.004">
  <path id="fix" d="M16.91,20.6l9.2,9.2a4.145,4.145,0,0,0,1.186,3.312,4.116,4.116,0,0,0,5.818-5.823A4.132,4.132,0,0,0,29.8,26.109l-9.2-9.2a5.238,5.238,0,0,0-6.053-6.5.48.48,0,0,0-.25.811l2.568,2.568L16,15.994l-2.208.874L11.226,14.3a.484.484,0,0,0-.811.25,5.229,5.229,0,0,0,6.5,6.053ZM28.134,29.4,29.4,28.13a.468.468,0,0,1,.461-.12l1.733.461a.474.474,0,0,1,.336.341l.466,1.728a.487.487,0,0,1-.125.466L31,32.272a.475.475,0,0,1-.341.139.515.515,0,0,1-.12-.014l-1.733-.466a.473.473,0,0,1-.336-.341l-.466-1.728A.491.491,0,0,1,28.134,29.4Z" transform="translate(-10.317 -10.313)" fill="#ec3240"/>
</svg>
