<svg xmlns="http://www.w3.org/2000/svg" xmlns:xlink="http://www.w3.org/1999/xlink" width="916.281" height="544.877" viewBox="0 0 916.281 544.877">
  <defs>
    <clipPath id="clip-path">
      <rect id="Rectangle_3" data-name="Rectangle 3" width="916.281" height="544.877" fill="none" stroke="#242424" stroke-width="3"/>
    </clipPath>
  </defs>
  <g id="logo_bg" data-name="logo bg" transform="translate(0 -24)">
    <g id="Layer_1" data-name="Layer 1" transform="translate(0 24)">
      <g id="Group_541" data-name="Group 541" clip-path="url(#clip-path)">
        <path id="Path_111" data-name="Path 111" d="M146.565.023C107.744,1.8,81.18,2.685,68.147,2.685,50.4,2.685,30.1,1.854,7.919.023A5.989,5.989,0,0,0,1.874,4.349L.322,9.562a5.546,5.546,0,0,0,3.327,7.1c14.086,5.1,22.682,9.761,25.566,13.754a31.223,31.223,0,0,1,4.6,15.972c1.386,13.809,1.553,63,.555,150.458L30.1,393.777a5.546,5.546,0,0,0,5.546,5.546H46.74a5.879,5.879,0,0,0,5.1-2.939c40.484-68.6,89.787-150.458,146.632-243.129l2.163-3.549v.943c.776,86.57,0,158.222-1.83,213.57-.388,10.426-.776,20.242-1.276,29.5h0a5.493,5.493,0,0,0,5.49,5.712h11.424a5.879,5.879,0,0,0,5.1-2.995c65.108-114.632,116.906-204.308,154.007-266.2h0l10.7-17.968c23.237-37.323,31.057-45.753,38.377-53.517a1.426,1.426,0,0,1-.388,1.165A65.664,65.664,0,0,0,418.2,83.211a30.225,30.225,0,0,0,30.5,29.559c30.946,0,45.642-20.575,52.852-40.706,6.655-18.634,7.764-33.552,1.775-47.084C497.782,13.167,483.252-5.079,450.2,1.687c-36.935,7.542-75.534,72.1-90.452,99.825l-90.73,161.439-2.329,4.159v-1.386l3.771-113.578s4.658-102.209,4.658-102.6c0,.5,1.83-8.152,1.83-8.152A27.729,27.729,0,0,1,286.32,28.03c2.717-2.163,8.651-5.546,30.835-11.092a6.211,6.211,0,0,0,4.548-4.159l1.664-5.546a5.524,5.524,0,0,0-5.823-7.21c-32,1.719-55.458,2.607-69.378,2.607S210.286,1.8,178.065.023a5.934,5.934,0,0,0-6.1,4.27L170.357,9.84a4.768,4.768,0,0,0,0,1.5,5.546,5.546,0,0,0,3.217,5.213,83.63,83.63,0,0,1,20.963,11.2,26.232,26.232,0,0,1,5.546,14.807,499.136,499.136,0,0,1,1.276,57.288v1.386l-.943,1.608C146.9,191.576,114.4,245.315,101.145,266.389l-2.163,3.494c1.165-32,5.546-148.684,5.546-148.684,2.717-66.273,2.884-68.768,2.939-69.545l2.052-9.428a27.729,27.729,0,0,1,9.761-13.754A78.917,78.917,0,0,1,146.4,16.661a5.934,5.934,0,0,0,4.048-4.048L152.055,7.4a5.546,5.546,0,0,0-.887-5.1,5.546,5.546,0,0,0-4.6-2.274" transform="translate(-0.044 -0.023)" fill="none" stroke="#242424" stroke-width="3"/>
        <path id="Path_112" data-name="Path 112" d="M514.315,29.208s-33.885,56.013-34,56.124-39.431,61.281-39.431,61.281-76.976,115.8-103.54,155.838V301.9c-4.381-54.571-8.374-122.008-11.868-200.093-1-25.566-1.442-49.136-1.276-69.933a5.546,5.546,0,0,0-5.934-5.546c-20.686,1.719-39.264,2.607-55.458,2.607s-34.384-.832-57.288-2.5a5.989,5.989,0,0,0-6.045,4.27l-1.331,4.381a7.094,7.094,0,0,0-.277,1.5,5.545,5.545,0,0,0,.776,2.995,5.1,5.1,0,0,0,3.6,2.607l3.993.832c20.908,3.716,27.175,6.156,28.838,7.6a13.088,13.088,0,0,1,3.494,10.371h0a249.555,249.555,0,0,1-11.092,47.139l-21.8,69.766L168.145,297.015c-14.863,43.535-22.183,54.294-25.954,59.4a52.133,52.133,0,0,0,.776-9.983c-1.886-24.956-19.91-41.982-34.329-41.982-34.55,0-47.029,47.694-47.029,70.321,0,23.459,8.152,40.207,23.57,47.417,12.534,5.546,26.287,3.549,45.975-7.6,37.989-21.573,63.333-109.2,70.21-135.6l32.942-110.916S247.284,128.2,256.49,99.362c4.1,75.59,14.807,270.969,16.637,310.178a5.546,5.546,0,0,0,5.546,5.269H289.1a5.546,5.546,0,0,0,4.88-2.662l37.6-57.4,165.155-251-11.092,37.933L433.346,313.6c-10.315,34.218-16.3,53.184-18.3,58.009a46.584,46.584,0,0,1-7.431,12.755,30.28,30.28,0,0,1-10.038,7.653,296.377,296.377,0,0,1-36.27,9.705,5.879,5.879,0,0,0-4.381,4.049l-1.442,4.88a7.09,7.09,0,0,0,0,1.5,5.546,5.546,0,0,0,5.546,5.546c35.382-1.775,62.335-2.662,80.082-2.662s42.37.887,74.425,2.607a5.934,5.934,0,0,0,5.934-4.215l1.275-4.326a5.463,5.463,0,0,0-3.827-7.043l-4.326-1.109q-23.792-4.769-29.726-10.315a11.591,11.591,0,0,1-2.551-7.376c0-2.44,0-7.986,5.546-28.616,1.109-4.27,16.027-53.961,44.367-147.685,22.682-75.2,35.715-116.906,39.763-127.554a58.232,58.232,0,0,1,14.419-24.013c3.217-2.662,10.537-6.378,38.821-11.979l4.88-1a6.045,6.045,0,0,0,4.492-4.1l1.386-4.6a5.546,5.546,0,0,0-5.546-7.21c-25.954,1.664-44.367,2.5-54.072,2.5-11.868,0-30.89-.887-56.512-2.662a5.934,5.934,0,0,0-5.546,2.884" transform="translate(280.068 119.587)" fill="none" stroke="#242424" stroke-width="3"/>
      </g>
    </g>
  </g>
</svg>
